<svg width="18" height="18" viewBox="0 0 18 18" fill="none" xmlns="http://www.w3.org/2000/svg">
  <path fill-rule="evenodd" clip-rule="evenodd"
    d="M17.25 14.25C17.25 15.0784 16.5784 15.75 15.75 15.75H2.25C1.42157 15.75 0.75 15.0784 0.75 14.25V6C0.75 5.17157 1.42157 4.5 2.25 4.5H5.25L6.75 2.25H11.25L12.75 4.5H15.75C16.5784 4.5 17.25 5.17157 17.25 6V14.25Z"
    stroke="#181717" stroke-width="1.5" stroke-linecap="round" stroke-linejoin="round" />
  <path fill-rule="evenodd" clip-rule="evenodd"
    d="M9 12.75C10.6569 12.75 12 11.4069 12 9.75C12 8.09315 10.6569 6.75 9 6.75C7.34315 6.75 6 8.09315 6 9.75C6 11.4069 7.34315 12.75 9 12.75Z"
    stroke="#181717" stroke-width="1.5" stroke-linecap="round" stroke-linejoin="round" />
</svg>