<svg width="24" height="24" viewBox="0 0 24 24" fill="none" xmlns="http://www.w3.org/2000/svg">
<path fill-rule="evenodd" clip-rule="evenodd" d="M5.7701 7.89142C3.175 9.65001 2 12 2 12C2 12 5 18 12 18C13.25 18 14.3724 17.8087 15.373 17.4944L13.7604 15.8817C13.298 15.9577 12.7984 16 12.2593 16C7.01852 16 5 12 5 12C5 12 5.83072 10.6806 7.43603 9.55736L5.7701 7.89142ZM16.7899 14.6686C18.4357 13.5049 19 12 19 12C19 12 17 8 12.2593 8C11.5753 8 10.9376 8.08326 10.3471 8.22574L8.62696 6.50565C9.62755 6.19133 10.75 6 12 6C19 6 22 12 22 12C22 12 20.825 14.35 18.2299 16.1086L16.7899 14.6686Z" fill="#333333"/>
<rect x="4" y="4.12132" width="2" height="22" transform="rotate(-45 4 4.12132)" fill="#333333"/>
<rect x="4" y="4.12132" width="2" height="22" transform="rotate(-45 4 4.12132)" fill="#333333"/>
<rect x="4" y="4.12132" width="2" height="22" transform="rotate(-45 4 4.12132)" fill="#333333"/>
<rect x="4" y="4.12132" width="2" height="22" transform="rotate(-45 4 4.12132)" fill="#333333"/>
</svg>
