<svg width="90" height="90" viewBox="0 0 90 90" fill="none" xmlns="http://www.w3.org/2000/svg">
<g clip-path="url(#clip0)">
<rect width="90" height="90" fill="white"/>
<path fill-rule="evenodd" clip-rule="evenodd" d="M38.0873 9.26747C35.2602 7.35742 31.3845 8.07519 29.4289 10.871L7.19089 42.6635C5.23386 45.4614 5.94113 49.2804 8.77031 51.1919L52.634 80.8275C55.4611 82.7375 59.3368 82.0198 61.2924 79.224L83.5304 47.4314C85.4874 44.6335 84.7802 40.8145 81.951 38.9031L38.0873 9.26747ZM30.4284 33.0942C29.8894 33.1373 29.5324 33.6475 29.685 34.1565L32.9539 45.062C33.1603 45.7503 34.092 45.9082 34.5015 45.3243L37.7441 40.701L51.8561 50.1731L48.5938 54.8242C48.1838 55.4088 48.6684 56.2071 49.398 56.1488L60.9635 55.2254C61.5025 55.1824 61.8595 54.6722 61.7069 54.1632L58.438 43.2581C58.2317 42.5698 57.2999 42.4118 56.8904 42.9958L53.8569 47.3206L39.7448 37.8484L42.7977 33.4956C43.2077 32.911 42.7231 32.1127 41.9935 32.1709L30.4284 33.0942Z" fill="#3791FF"/>
</g>
<defs>
<clipPath id="clip0">
<rect width="90" height="90" fill="white"/>
</clipPath>
</defs>
</svg>
