<svg width="431" height="865" viewBox="0 0 431 865" fill="none" xmlns="http://www.w3.org/2000/svg">
<path fill-rule="evenodd" clip-rule="evenodd" d="M70 0C31.3398 0 0 31.3398 0 70V795C0 833.66 31.3398 865 70 865H361C399.66 865 431 833.66 431 795V70C431 31.3398 399.66 0 361 0H70ZM68 27C45.9087 27 28 44.9087 28 67V799C28 821.091 45.9087 839 68 839H363C385.091 839 403 821.091 403 799V67C403 44.9087 385.091 27 363 27H328.125C323.914 27 320.5 30.4141 320.5 34.625C320.5 47.2583 310.258 57.5 297.625 57.5H134.375C121.742 57.5 111.5 47.2583 111.5 34.625C111.5 30.4141 108.086 27 103.875 27H68Z" fill="#C4C4C4"/>
<path fill-rule="evenodd" clip-rule="evenodd" d="M76 7C38.4448 7 8 37.4448 8 75V790C8 827.555 38.4448 858 76 858H355C392.555 858 423 827.555 423 790V75C423 37.4448 392.555 7 355 7H76ZM68 26C45.9087 26 28 43.9087 28 66V798C28 820.091 45.9087 838 68 838H363C385.091 838 403 820.091 403 798V66C403 43.9087 385.091 26 363 26H328.125C323.914 26 320.5 29.4141 320.5 33.625C320.5 46.2583 310.258 56.5 297.625 56.5H134.375C121.742 56.5 111.5 46.2583 111.5 33.625C111.5 29.4141 108.086 26 103.875 26H68Z" fill="#363636"/>
<path fill-rule="evenodd" clip-rule="evenodd" d="M76 7C38.4448 7 8 37.4448 8 75V790C8 827.555 38.4448 858 76 858H355C392.555 858 423 827.555 423 790V75C423 37.4448 392.555 7 355 7H76ZM68 26C45.9087 26 28 43.9087 28 66V798C28 820.091 45.9087 838 68 838H363C385.091 838 403 820.091 403 798V66C403 43.9087 385.091 26 363 26H328.125C323.914 26 320.5 29.4141 320.5 33.625C320.5 46.2583 310.258 56.5 297.625 56.5H134.375C121.742 56.5 111.5 46.2583 111.5 33.625C111.5 29.4141 108.086 26 103.875 26H68Z" fill="#444444"/>
<path fill-rule="evenodd" clip-rule="evenodd" d="M73 11C39.8628 11 13 37.8628 13 71V794C13 827.137 39.8628 854 73 854H358C391.137 854 418 827.137 418 794V71C418 37.8628 391.137 11 358 11H73ZM68 27C45.9087 27 28 44.9087 28 67V799C28 821.091 45.9087 839 68 839H363C385.091 839 403 821.091 403 799V67C403 44.9087 385.091 27 363 27H328.125C323.914 27 320.5 30.4141 320.5 34.625C320.5 47.2583 310.258 57.5 297.625 57.5H134.375C121.742 57.5 111.5 47.2583 111.5 34.625C111.5 30.4141 108.086 27 103.875 27H68Z" fill="#7F7F7E"/>
<path fill-rule="evenodd" clip-rule="evenodd" d="M64 19C39.6997 19 20 38.6997 20 63V802C20 826.3 39.6997 846 64 846H367C391.3 846 411 826.3 411 802V63C411 38.6997 391.3 19 367 19H64ZM68 27C45.9087 27 28 44.9087 28 67V799C28 821.091 45.9087 839 68 839H363C385.091 839 403 821.091 403 799V67C403 44.9087 385.091 27 363 27H328.125C323.914 27 320.5 30.4141 320.5 34.625C320.5 47.2583 310.258 57.5 297.625 57.5H134.375C121.742 57.5 111.5 47.2583 111.5 34.625C111.5 30.4141 108.086 27 103.875 27H68Z" fill="black"/>
</svg>
