<?xml version="1.0" encoding="UTF-8"?>
<svg width="24px" height="24px" viewBox="0 0 24 24" version="1.1" xmlns="http://www.w3.org/2000/svg" xmlns:xlink="http://www.w3.org/1999/xlink">
    <!-- Generator: Sketch 52.6 (67491) - http://www.bohemiancoding.com/sketch -->
    <title>sync</title>
    <desc>Created with Sketch.</desc>
    <g id="Hi-Fi" stroke="none" stroke-width="1" fill="none" fill-rule="evenodd">
        <g id="Group-27">
            <path d="M7.85875937,11.0407399 L5.90778099,9.08976151 C5.47723146,9.98923177 5.25,10.9779671 5.25,12 C5.25,15.7279221 8.27207794,18.75 12,18.75 C12.3250173,18.75 12.6470821,18.7270475 12.9646006,18.6816301 L13.25,18.6408069 L13.25,20.4490579 L16.6203519,17.5 L13.25,14.5509421 L13.25,16.0677849 L13.0623146,16.1160918 C12.7179885,16.2047152 12.3618673,16.25 12,16.25 C9.65278981,16.25 7.75,14.3472102 7.75,12 C7.75,11.6740861 7.78673374,11.3528555 7.85875937,11.0407399 Z M16.1412406,12.9592601 L18.092219,14.9102385 C18.5227685,14.0107682 18.75,13.0220329 18.75,12 C18.75,8.27207794 15.7279221,5.25 12,5.25 C11.6749827,5.25 11.3529179,5.27295248 11.0353994,5.31836993 L10.75,5.35919312 L10.75,3.55094206 L7.37964806,6.5 L10.75,9.44905794 L10.75,7.93221507 L10.9376854,7.88390824 C11.2820115,7.79528481 11.6381327,7.75 12,7.75 C14.3472102,7.75 16.25,9.65278981 16.25,12 C16.25,12.3259139 16.2132663,12.6471445 16.1412406,12.9592601 Z" id="Sync" stroke="#0059C8" stroke-width="0.5" fill="#E2EFFF" fill-rule="nonzero"></path>
            <g id="Group-3"></g>
        </g>
    </g>
</svg>