<?xml version="1.0" encoding="UTF-8"?>
<svg width="24px" height="24px" viewBox="0 0 24 24" version="1.1" xmlns="http://www.w3.org/2000/svg" xmlns:xlink="http://www.w3.org/1999/xlink">
    <!-- Generator: Sketch 52.6 (67491) - http://www.bohemiancoding.com/sketch -->
    <title>sync</title>
    <desc>Created with Sketch.</desc>
    <g id="Hi-Fi" stroke="none" stroke-width="1" fill="none" fill-rule="evenodd">
        <g id="Group-27">
            <path d="M13,15.8739826 L13,14 L17,17.5 L13,21 L13,18.9291111 C12.673397,18.975828 12.3395213,19 12,19 C8.13400675,19 5,15.8659932 5,12 C5,10.7944834 5.30473627,9.66014172 5.84137837,8.66980549 L8.13548648,10.9639136 C8.04711451,11.2943669 8,11.6416813 8,12 C8,14.209139 9.790861,16 12,16 C12.3452996,16 12.6803801,15.956247 13,15.8739825 Z M11,8.12601744 L11,10 L7,6.5 L11,3 L11,5.07088886 C11.326603,5.02417196 11.6604787,5 12,5 C15.8659932,5 19,8.13400675 19,12 C19,13.2055166 18.6952637,14.3398583 18.1586216,15.3301945 L15.8645135,13.0360864 C15.9528855,12.7056331 16,12.3583187 16,12 C16,9.790861 14.209139,8 12,8 C11.6547004,8 11.3196199,8.043753 11,8.12601749 Z" id="Sync" fill="#252525" fill-rule="nonzero"></path>
            <g id="Group-3"></g>
        </g>
    </g>
</svg>