<?xml version="1.0" encoding="UTF-8"?>
<svg width="26px" height="26px" viewBox="0 0 26 26" version="1.1" xmlns="http://www.w3.org/2000/svg" xmlns:xlink="http://www.w3.org/1999/xlink">
    <!-- Generator: Sketch 49.2 (51160) - http://www.bohemiancoding.com/sketch -->
    <title>inspector_icon</title>
    <desc>Created with Sketch.</desc>
    <defs></defs>
    <g id="Page-1" stroke="none" stroke-width="1" fill="none" fill-rule="evenodd">
        <g id="Desktop-HD---Edit" transform="translate(-586.000000, -535.000000)" fill="#FFFFFF">
            <g id="inspector_icon" transform="translate(586.000000, 535.000000)">
                <path d="M13,19 C9.6862915,19 7,16.3137085 7,13 C7,9.6862915 9.6862915,7 13,7 C16.3137085,7 19,9.6862915 19,13 C19,16.3137085 16.3137085,19 13,19 Z M13,17 C15.209139,17 17,15.209139 17,13 C17,10.790861 15.209139,9 13,9 C10.790861,9 9,10.790861 9,13 C9,15.209139 10.790861,17 13,17 Z" id="Combined-Shape"></path>
                <g id="Group-7" transform="translate(12.000000, 0.000000)">
                    <rect id="Rectangle" x="0" y="0" width="2" height="4"></rect>
                    <rect id="Rectangle" x="0" y="22" width="2" height="4"></rect>
                </g>
                <g id="Group-7" transform="translate(13.000000, 13.000000) rotate(-90.000000) translate(-13.000000, -13.000000) translate(12.000000, 0.000000)">
                    <rect id="Rectangle" x="0" y="0" width="2" height="4"></rect>
                    <rect id="Rectangle" x="0" y="22" width="2" height="4"></rect>
                </g>
            </g>
        </g>
    </g>
</svg>