<?xml version="1.0" encoding="UTF-8"?>
<svg width="55px" height="51px" viewBox="0 0 55 51" version="1.1" xmlns="http://www.w3.org/2000/svg" xmlns:xlink="http://www.w3.org/1999/xlink">
    <!-- Generator: Sketch 49.2 (51160) - http://www.bohemiancoding.com/sketch -->
    <title>Shape</title>
    <desc>Created with Sketch.</desc>
    <defs></defs>
    <g id="Page-1" stroke="none" stroke-width="1" fill="none" fill-rule="evenodd">
        <g id="icon-edit" fill="#FFFFFF" fill-rule="nonzero">
            <path d="M53.5,14 C55,11.5 54.5,7 52,4 C49.5,1 44,5.77315973e-15 42.2,1.6 C36.3333333,6.86666667 23.4333333,18.4333333 3.5,36.3 L0.700163825,48.9444214 C0.580764292,49.4836451 0.921099021,50.0175648 1.46032272,50.1369643 C1.56548402,50.16025 1.67371664,50.1663934 1.78083744,50.1551569 C6.08722496,49.7034379 10.3936125,49.251719 14.7,48.8 C22.5,41.8 44.7,21.9 53.5,14 Z M10,40.2 C8.9,39.1 8.6,38.6 7.3,37.8 L42.1,6.3 C43.3,6.7 44.2,7.2 45,8.6 L10,40.2 Z" id="Shape"></path>
        </g>
    </g>
</svg>