<?xml version="1.0" encoding="UTF-8"?>
<svg width="126px" height="120px" viewBox="0 0 126 120" version="1.1" xmlns="http://www.w3.org/2000/svg" xmlns:xlink="http://www.w3.org/1999/xlink">
    <!-- Generator: Sketch 50.2 (55047) - http://www.bohemiancoding.com/sketch -->
    <title>icon-refresh</title>
    <desc>Created with Sketch.</desc>
    <defs></defs>
    <g id="Icons" stroke="none" stroke-width="1" fill="none" fill-rule="evenodd">
        <g id="bell" transform="translate(-170.000000, -387.000000)" fill="#2973FF">
            <path d="M272.468017,404.615244 L278.041631,399.041631 L284.966956,392.116305 C286.529053,390.554208 289.061713,390.554208 290.62381,392.116305 C291.294967,392.787463 291.705592,393.675414 291.782299,394.621469 L293.204581,412.162951 L295.135747,435.980657 C295.225014,437.081613 294.404877,438.04648 293.30392,438.135747 C293.196342,438.144469 293.088235,438.144469 292.980657,438.135747 L251.621469,434.782299 C249.419556,434.603766 247.779283,432.674032 247.957816,430.472119 C248.034523,429.526064 248.445148,428.638113 249.116305,427.966956 L254.041631,423.041631 L263.275623,413.807638 C254.76703,405.277834 242.999867,400 230,400 C204.042617,400 183,421.042617 183,447 C183,472.957383 204.042617,494 230,494 C250.65759,494 268.202458,480.672851 274.505686,462.147471 L274.5,462.5 L286.935407,465.981914 C278.993002,489.816037 256.503266,507 230,507 C196.862915,507 170,480.137085 170,447 C170,413.862915 196.862915,387 230,387 C246.589718,387 261.606881,393.732906 272.468017,404.615244 Z" id="icon-refresh"></path>
        </g>
    </g>
</svg>