<svg width="72" height="72" viewBox="0 0 72 72" fill="none" xmlns="http://www.w3.org/2000/svg">
<g clip-path="url(#clip0)">
<path d="M65.5736 24.3403C64.1866 21.003 61.3732 17.3996 59.17 16.2606C60.7414 19.3039 61.8319 22.5724 62.4027 25.9497L62.4084 26.0032C58.7993 17.0051 52.679 13.3771 47.6804 5.47685C47.4276 5.0774 47.1747 4.67712 46.9284 4.2546C46.7876 4.01328 46.6748 3.79584 46.5768 3.5957C46.3694 3.19423 46.2097 2.76994 46.1007 2.33144C46.1008 2.3112 46.0935 2.29162 46.0802 2.27643C46.0668 2.26124 46.0483 2.2515 46.0282 2.24907C46.0085 2.24368 45.9878 2.24368 45.9681 2.24907C45.964 2.24907 45.9574 2.25649 45.9524 2.25813C45.9475 2.25978 45.9368 2.26719 45.9294 2.27049L45.9417 2.24907C37.9238 6.94373 35.2033 15.6346 34.953 19.9817C31.751 20.2018 28.6896 21.3817 26.1682 23.3676C25.9051 23.1448 25.6302 22.9364 25.3446 22.7433C24.6172 20.1974 24.5862 17.503 25.2548 14.9411C22.3103 16.3676 19.6939 18.3897 17.5712 20.8794H17.5564C16.2913 19.2758 16.3802 13.9882 16.4527 12.8837C16.0785 13.0341 15.7212 13.2238 15.3869 13.4495C14.2701 14.2466 13.2261 15.141 12.2671 16.1222C11.1742 17.2302 10.176 18.4278 9.28307 19.7025V19.7074V19.7017C7.2308 22.6112 5.77517 25.8984 5.00023 29.3735L4.9574 29.5843C4.89727 29.8652 4.68066 31.2719 4.6436 31.5775C4.6436 31.6014 4.63866 31.6236 4.63619 31.6475C4.35676 33.0998 4.18362 34.5706 4.11813 36.0481V36.2128C4.12512 44.2055 7.13014 51.9048 12.5393 57.789C17.9484 63.6733 25.3681 67.3143 33.332 67.9926C41.2958 68.6708 49.2244 66.337 55.5507 61.4522C61.877 56.5675 66.1407 49.4873 67.4993 41.6109C67.5528 41.1991 67.5965 40.7914 67.6442 40.3754C68.3017 34.9414 67.5899 29.4291 65.5736 24.3403V24.3403ZM28.7824 49.3274C28.9314 49.3991 29.0715 49.4765 29.2246 49.5448L29.2469 49.5588C29.092 49.4847 28.9372 49.4076 28.7824 49.3274V49.3274ZM62.4109 26.0106V25.9801L62.4167 26.0139L62.4109 26.0106Z" fill="url(#paint0_linear)"/>
<path d="M65.5736 24.3403C64.1866 21.003 61.3732 17.3996 59.17 16.2606C60.7414 19.3039 61.8319 22.5724 62.4027 25.9497V25.9801L62.4084 26.0139C64.8688 33.0546 64.513 40.7738 61.4152 47.5583C57.7566 55.4082 48.901 63.4542 35.0394 63.063C20.0618 62.6388 6.8715 51.5248 4.40557 36.9681C3.9567 34.6727 4.40557 33.5089 4.63124 31.6434C4.3234 33.0924 4.15161 34.5671 4.11813 36.0481V36.2128C4.12512 44.2055 7.13014 51.9048 12.5393 57.789C17.9484 63.6733 25.3681 67.3143 33.332 67.9926C41.2958 68.6708 49.2244 66.337 55.5507 61.4522C61.877 56.5675 66.1407 49.4873 67.4993 41.6109C67.5528 41.1991 67.5965 40.7914 67.6442 40.3754C68.3017 34.9414 67.5899 29.4291 65.5736 24.3403V24.3403Z" fill="url(#paint1_radial)"/>
<path d="M65.5736 24.3403C64.1866 21.003 61.3732 17.3996 59.17 16.2606C60.7414 19.3039 61.8319 22.5724 62.4027 25.9497V25.9801L62.4084 26.0139C64.8688 33.0546 64.513 40.7738 61.4152 47.5583C57.7566 55.4082 48.901 63.4542 35.0394 63.063C20.0618 62.6388 6.8715 51.5248 4.40557 36.9681C3.9567 34.6727 4.40557 33.5089 4.63124 31.6434C4.3234 33.0924 4.15161 34.5671 4.11813 36.0481V36.2128C4.12512 44.2055 7.13014 51.9048 12.5393 57.789C17.9484 63.6733 25.3681 67.3143 33.332 67.9926C41.2958 68.6708 49.2244 66.337 55.5507 61.4522C61.877 56.5675 66.1407 49.4873 67.4993 41.6109C67.5528 41.1991 67.5965 40.7914 67.6442 40.3754C68.3017 34.9414 67.5899 29.4291 65.5736 24.3403V24.3403Z" fill="url(#paint2_radial)"/>
<path d="M50.0615 28.0927C50.1307 28.1413 50.1949 28.1899 50.26 28.2385C49.4581 26.8167 48.46 25.5149 47.2949 24.3716C37.3736 14.4486 44.6948 2.85608 45.9294 2.26719L45.9417 2.24907C37.9237 6.94372 35.2033 15.6346 34.9529 19.9817C35.3252 19.9562 35.6942 19.9249 36.0747 19.9249C38.9197 19.9301 41.7125 20.6886 44.1692 22.1232C46.6259 23.5579 48.6589 25.6175 50.0615 28.0927V28.0927Z" fill="url(#paint3_radial)"/>
<path d="M36.0953 30.0744C36.0426 30.8683 33.2373 33.6069 32.2564 33.6069C23.1792 33.6069 21.7058 39.098 21.7058 39.098C22.1077 43.7218 25.3297 47.5303 29.2246 49.5448C29.4025 49.6371 29.5829 49.7203 29.7633 49.8018C30.0757 49.9402 30.3881 50.0681 30.7006 50.1856C32.0373 50.6587 33.4373 50.9288 34.8541 50.987C50.7641 51.7332 53.8461 31.9613 42.3647 26.2239C45.0733 25.8715 47.8162 26.5375 50.0615 28.0927C48.659 25.6175 46.626 23.5579 44.1692 22.1232C41.7125 20.6886 38.9197 19.9301 36.0747 19.9249C35.6959 19.9249 35.3252 19.9562 34.9529 19.9817C31.7509 20.2018 28.6896 21.3817 26.1682 23.3676C26.6549 23.7794 27.2043 24.3296 28.3615 25.4703C30.5276 27.6043 36.083 29.8149 36.0953 30.0744V30.0744Z" fill="url(#paint4_radial)"/>
<path d="M36.0953 30.0744C36.0426 30.8683 33.2373 33.6069 32.2564 33.6069C23.1792 33.6069 21.7058 39.098 21.7058 39.098C22.1077 43.7218 25.3297 47.5303 29.2246 49.5448C29.4025 49.6371 29.5829 49.7203 29.7633 49.8018C30.0757 49.9402 30.3881 50.0681 30.7006 50.1856C32.0373 50.6587 33.4373 50.9288 34.8541 50.987C50.7641 51.7332 53.8461 31.9613 42.3647 26.2239C45.0733 25.8715 47.8162 26.5375 50.0615 28.0927C48.659 25.6175 46.626 23.5579 44.1692 22.1232C41.7125 20.6886 38.9197 19.9301 36.0747 19.9249C35.6959 19.9249 35.3252 19.9562 34.9529 19.9817C31.7509 20.2018 28.6896 21.3817 26.1682 23.3676C26.6549 23.7794 27.2043 24.3296 28.3615 25.4703C30.5276 27.6043 36.083 29.8149 36.0953 30.0744V30.0744Z" fill="url(#paint5_radial)"/>
<path d="M24.6799 22.306C24.9385 22.4707 25.1518 22.614 25.3388 22.7433C24.6114 20.1974 24.5804 17.5031 25.249 14.9411C22.3045 16.3676 19.6881 18.3897 17.5654 20.8794C17.7211 20.8753 22.3515 20.7921 24.6799 22.306V22.306Z" fill="url(#paint6_radial)"/>
<path d="M4.40968 36.9681C6.87314 51.5248 20.0659 62.6388 35.0435 63.063C48.9051 63.455 57.7607 55.4082 61.4193 47.5583C64.5171 40.7738 64.8729 33.0546 62.4126 26.0139V25.9834C62.4126 25.9596 62.4076 25.9456 62.4126 25.953L62.4183 26.0065C63.5508 33.4002 59.7901 40.5632 53.9111 45.407L53.893 45.4481C42.438 54.7773 31.4756 51.0768 29.2568 49.5663C29.1019 49.4921 28.9471 49.415 28.7922 49.3348C22.1135 46.1425 19.3543 40.0575 19.9457 34.839C18.3603 34.8624 16.8022 34.4256 15.46 33.5813C14.1179 32.7371 13.0494 31.5218 12.384 30.0826C14.1372 29.0086 16.1362 28.4014 18.1906 28.3189C20.2449 28.2364 22.2862 28.6814 24.1198 29.6115C27.9001 31.3276 32.2018 31.4967 36.1052 30.0826C36.0928 29.8232 30.5375 27.6117 28.3714 25.4786C27.2142 24.3378 26.6648 23.7885 26.1781 23.3758C25.915 23.153 25.64 22.9446 25.3544 22.7515C25.165 22.6222 24.9517 22.4822 24.6955 22.3142C22.3671 20.8004 17.7367 20.8836 17.5835 20.8877H17.5687C16.3036 19.2841 16.3926 13.9964 16.4651 12.8919C16.0908 13.0423 15.7335 13.232 15.3993 13.4578C14.2825 14.2548 13.2385 15.1492 12.2794 16.1304C11.1826 17.2353 10.1803 18.4302 9.28306 19.7025V19.7074V19.7017C7.23079 22.6112 5.77516 25.8984 5.00022 29.3735C4.98457 29.4385 3.85044 34.3968 4.40968 36.9681V36.9681Z" fill="url(#paint7_radial)"/>
<path d="M47.2966 24.3716C48.4619 25.5162 49.4601 26.8194 50.2616 28.2426C50.4371 28.3752 50.601 28.507 50.7402 28.6347C57.9773 35.306 54.1854 44.7365 53.9029 45.4078C59.7819 40.564 63.5393 33.401 62.4101 26.0073C58.7993 17.0051 52.679 13.3771 47.6804 5.47685C47.4275 5.0774 47.1747 4.67712 46.9284 4.2546C46.7876 4.01328 46.6748 3.79584 46.5767 3.5957C46.3694 3.19423 46.2097 2.76994 46.1007 2.33144C46.1008 2.3112 46.0935 2.29162 46.0802 2.27643C46.0668 2.26124 46.0483 2.2515 46.0282 2.24907C46.0085 2.24368 45.9878 2.24368 45.9681 2.24907C45.964 2.24907 45.9574 2.25649 45.9524 2.25813C45.9475 2.25978 45.9368 2.26719 45.9294 2.27049C44.6948 2.85608 37.3736 14.4486 47.2966 24.3716V24.3716Z" fill="url(#paint8_radial)"/>
<path d="M50.7352 28.6306C50.596 28.5029 50.4321 28.3711 50.2567 28.2385C50.1916 28.1899 50.1274 28.1413 50.0582 28.0927C47.8129 26.5375 45.07 25.8715 42.3614 26.2239C53.8428 31.9646 50.7624 51.7332 34.8508 50.987C33.434 50.9288 32.034 50.6587 30.6973 50.1856C30.3848 50.0687 30.0724 49.9407 29.76 49.8018C29.5796 49.7194 29.3992 49.6371 29.2213 49.5448L29.2436 49.5588C31.4624 51.0735 42.4216 54.774 53.8798 45.4407L53.8979 45.3995C54.1837 44.7324 57.9757 35.2994 50.7352 28.6306V28.6306Z" fill="url(#paint9_radial)"/>
<path d="M21.7058 39.098C21.7058 39.098 23.1793 33.6069 32.2564 33.6069C33.2373 33.6069 36.0451 30.8683 36.0953 30.0744C32.192 31.4885 27.8903 31.3194 24.1099 29.6033C22.2763 28.6732 20.2351 28.2282 18.1807 28.3107C16.1263 28.3931 14.1273 29.0003 12.3741 30.0744C13.0395 31.5136 14.108 32.7289 15.4502 33.5731C16.7923 34.4173 18.3504 34.8542 19.9358 34.8308C19.3445 40.0501 22.1036 46.135 28.7824 49.3266C28.9314 49.3982 29.0715 49.4757 29.2246 49.544C25.3264 47.5303 22.1077 43.7218 21.7058 39.098Z" fill="url(#paint10_radial)"/>
<path d="M65.5736 24.3403C64.1866 21.003 61.3732 17.3996 59.17 16.2606C60.7414 19.3039 61.8319 22.5724 62.4027 25.9497L62.4084 26.0032C58.7993 17.0051 52.679 13.3771 47.6804 5.47685C47.4276 5.0774 47.1747 4.67712 46.9284 4.2546C46.7876 4.01328 46.6748 3.79584 46.5768 3.5957C46.3694 3.19423 46.2097 2.76994 46.1007 2.33144C46.1008 2.3112 46.0935 2.29162 46.0802 2.27643C46.0668 2.26124 46.0483 2.2515 46.0282 2.24907C46.0085 2.24368 45.9878 2.24368 45.9681 2.24907C45.964 2.24907 45.9574 2.25649 45.9524 2.25813C45.9475 2.25978 45.9368 2.26719 45.9294 2.27049L45.9417 2.24907C37.9238 6.94373 35.2033 15.6346 34.953 19.9817C35.3252 19.9562 35.6942 19.9249 36.0747 19.9249C38.9197 19.9301 41.7125 20.6886 44.1692 22.1232C46.626 23.5579 48.659 25.6175 50.0615 28.0927C47.8162 26.5375 45.0733 25.8715 42.3647 26.2239C53.8461 31.9646 50.7657 51.7332 34.8541 50.987C33.4374 50.9288 32.0373 50.6587 30.7006 50.1856C30.3882 50.0687 30.0757 49.9407 29.7633 49.8018C29.5829 49.7195 29.4026 49.6371 29.2246 49.5448L29.2469 49.5588C29.092 49.4847 28.9372 49.4076 28.7824 49.3274C28.9314 49.3991 29.0715 49.4765 29.2246 49.5448C25.3264 47.5303 22.1077 43.7218 21.7058 39.098C21.7058 39.098 23.1793 33.6069 32.2564 33.6069C33.2373 33.6069 36.0451 30.8684 36.0953 30.0744C36.083 29.8149 30.5276 27.6035 28.3615 25.4703C27.2043 24.3296 26.6549 23.7802 26.1682 23.3676C25.9051 23.1448 25.6302 22.9364 25.3446 22.7433C24.6172 20.1974 24.5862 17.503 25.2548 14.9411C22.3103 16.3676 19.6939 18.3897 17.5712 20.8794H17.5564C16.2913 19.2758 16.3802 13.9882 16.4527 12.8837C16.0785 13.0341 15.7212 13.2238 15.3869 13.4495C14.2701 14.2466 13.2261 15.141 12.2671 16.1222C11.1742 17.2302 10.176 18.4278 9.28307 19.7025V19.7074V19.7017C7.2308 22.6112 5.77517 25.8984 5.00023 29.3735L4.9574 29.5843C4.89727 29.8652 4.62795 31.2917 4.58924 31.5981C4.58924 31.6211 4.58924 31.5742 4.58924 31.5981C4.3429 33.0706 4.18558 34.5567 4.11813 36.0481V36.2128C4.12512 44.2055 7.13014 51.9048 12.5393 57.789C17.9484 63.6733 25.3681 67.3143 33.332 67.9926C41.2958 68.6708 49.2244 66.337 55.5507 61.4522C61.877 56.5675 66.1407 49.4873 67.4993 41.6109C67.5528 41.1991 67.5965 40.7914 67.6442 40.3754C68.3017 34.9414 67.5899 29.4291 65.5736 24.3403V24.3403ZM62.4068 25.9801L62.4126 26.0139L62.4068 25.9801Z" fill="url(#paint11_linear)"/>
</g>
<defs>
<linearGradient id="paint0_linear" x1="61.3484" y1="12.4488" x2="8.35732" y2="63.5753" gradientUnits="userSpaceOnUse">
<stop offset="0.048" stop-color="#FFF44F"/>
<stop offset="0.111" stop-color="#FFE847"/>
<stop offset="0.225" stop-color="#FFC830"/>
<stop offset="0.368" stop-color="#FF980E"/>
<stop offset="0.401" stop-color="#FF8B16"/>
<stop offset="0.462" stop-color="#FF672A"/>
<stop offset="0.534" stop-color="#FF3647"/>
<stop offset="0.705" stop-color="#E31587"/>
</linearGradient>
<radialGradient id="paint1_radial" cx="0" cy="0" r="1" gradientUnits="userSpaceOnUse" gradientTransform="translate(58.8998 9.55452) scale(66.5463)">
<stop offset="0.129" stop-color="#FFBD4F"/>
<stop offset="0.186" stop-color="#FFAC31"/>
<stop offset="0.247" stop-color="#FF9D17"/>
<stop offset="0.283" stop-color="#FF980E"/>
<stop offset="0.403" stop-color="#FF563B"/>
<stop offset="0.467" stop-color="#FF3750"/>
<stop offset="0.71" stop-color="#F5156C"/>
<stop offset="0.782" stop-color="#EB0878"/>
<stop offset="0.86" stop-color="#E50080"/>
</radialGradient>
<radialGradient id="paint2_radial" cx="0" cy="0" r="1" gradientUnits="userSpaceOnUse" gradientTransform="translate(34.5832 36.7606) scale(66.5463)">
<stop offset="0.3" stop-color="#960E18"/>
<stop offset="0.351" stop-color="#B11927" stop-opacity="0.74"/>
<stop offset="0.435" stop-color="#DB293D" stop-opacity="0.343"/>
<stop offset="0.497" stop-color="#F5334B" stop-opacity="0.094"/>
<stop offset="0.53" stop-color="#FF3750" stop-opacity="0"/>
</radialGradient>
<radialGradient id="paint3_radial" cx="0" cy="0" r="1" gradientUnits="userSpaceOnUse" gradientTransform="translate(42.6059 -5.54737) scale(48.21)">
<stop offset="0.132" stop-color="#FFF44F"/>
<stop offset="0.252" stop-color="#FFDC3E"/>
<stop offset="0.506" stop-color="#FF9D12"/>
<stop offset="0.526" stop-color="#FF980E"/>
</radialGradient>
<radialGradient id="paint4_radial" cx="0" cy="0" r="1" gradientUnits="userSpaceOnUse" gradientTransform="translate(27.2225 54.1428) scale(31.6856)">
<stop offset="0.353" stop-color="#3A8EE6"/>
<stop offset="0.472" stop-color="#5C79F0"/>
<stop offset="0.669" stop-color="#9059FF"/>
<stop offset="1" stop-color="#C139E6"/>
</radialGradient>
<radialGradient id="paint5_radial" cx="0" cy="0" r="1" gradientUnits="userSpaceOnUse" gradientTransform="translate(38.2196 31.3069) rotate(-13.5916) scale(16.7995 19.6681)">
<stop offset="0.206" stop-color="#9059FF" stop-opacity="0"/>
<stop offset="0.278" stop-color="#8C4FF3" stop-opacity="0.064"/>
<stop offset="0.747" stop-color="#7716A8" stop-opacity="0.45"/>
<stop offset="0.975" stop-color="#6E008B" stop-opacity="0.6"/>
</radialGradient>
<radialGradient id="paint6_radial" cx="0" cy="0" r="1" gradientUnits="userSpaceOnUse" gradientTransform="translate(33.743 6.83187) scale(22.7946)">
<stop stop-color="#FFE226"/>
<stop offset="0.121" stop-color="#FFDB27"/>
<stop offset="0.295" stop-color="#FFC82A"/>
<stop offset="0.502" stop-color="#FFA930"/>
<stop offset="0.732" stop-color="#FF7E37"/>
<stop offset="0.792" stop-color="#FF7139"/>
</radialGradient>
<radialGradient id="paint7_radial" cx="0" cy="0" r="1" gradientUnits="userSpaceOnUse" gradientTransform="translate(51.6601 -7.62651) scale(97.2543)">
<stop offset="0.113" stop-color="#FFF44F"/>
<stop offset="0.456" stop-color="#FF980E"/>
<stop offset="0.622" stop-color="#FF5634"/>
<stop offset="0.716" stop-color="#FF3647"/>
<stop offset="0.904" stop-color="#E31587"/>
</radialGradient>
<radialGradient id="paint8_radial" cx="0" cy="0" r="1" gradientUnits="userSpaceOnUse" gradientTransform="translate(43.4633 -2.21866) rotate(83.976) scale(71.28 46.7804)">
<stop stop-color="#FFF44F"/>
<stop offset="0.06" stop-color="#FFE847"/>
<stop offset="0.168" stop-color="#FFC830"/>
<stop offset="0.304" stop-color="#FF980E"/>
<stop offset="0.356" stop-color="#FF8B16"/>
<stop offset="0.455" stop-color="#FF672A"/>
<stop offset="0.57" stop-color="#FF3647"/>
<stop offset="0.737" stop-color="#E31587"/>
</radialGradient>
<radialGradient id="paint9_radial" cx="0" cy="0" r="1" gradientUnits="userSpaceOnUse" gradientTransform="translate(33.2062 15.2748) scale(60.7175)">
<stop offset="0.137" stop-color="#FFF44F"/>
<stop offset="0.48" stop-color="#FF980E"/>
<stop offset="0.592" stop-color="#FF5634"/>
<stop offset="0.655" stop-color="#FF3647"/>
<stop offset="0.904" stop-color="#E31587"/>
</radialGradient>
<radialGradient id="paint10_radial" cx="0" cy="0" r="1" gradientUnits="userSpaceOnUse" gradientTransform="translate(49.2338 18.8284) scale(66.4549)">
<stop offset="0.094" stop-color="#FFF44F"/>
<stop offset="0.231" stop-color="#FFE141"/>
<stop offset="0.509" stop-color="#FFAF1E"/>
<stop offset="0.626" stop-color="#FF980E"/>
</radialGradient>
<linearGradient id="paint11_linear" x1="60.7118" y1="12.1754" x2="15.6217" y2="57.2647" gradientUnits="userSpaceOnUse">
<stop offset="0.167" stop-color="#FFF44F" stop-opacity="0.8"/>
<stop offset="0.266" stop-color="#FFF44F" stop-opacity="0.634"/>
<stop offset="0.489" stop-color="#FFF44F" stop-opacity="0.217"/>
<stop offset="0.6" stop-color="#FFF44F" stop-opacity="0"/>
</linearGradient>
<clipPath id="clip0">
<rect width="72" height="67.5099" fill="white" transform="translate(0 2.24503)"/>
</clipPath>
</defs>
</svg>
