<svg width="72" height="72" viewBox="0 0 72 72" fill="none" xmlns="http://www.w3.org/2000/svg">
<path d="M62.7322 39.8559C66.861 43.0753 66.861 48.3719 62.7322 51.6167L43.3091 66.8833C39.1803 70.1027 32.4588 70.1027 28.33 66.8833L8.90686 51.6433C4.77854 48.4238 4.77854 43.1273 8.90674 39.8812L28.3299 24.6159C32.4587 21.3964 39.1802 21.3964 43.309 24.6159L62.7321 39.8559H62.7322Z" fill="#FF9D00"/>
<path d="M28.3771 57.3541L8.86701 42.0211C6.9003 40.4802 5.81056 38.4164 5.81056 36.2222C5.81056 34.028 6.9003 31.9642 8.86725 30.4233L28.3773 15.0637C30.3445 13.5228 33.0024 12.6608 35.8198 12.6608C38.6371 12.6608 41.2685 13.5228 43.2623 15.0637L62.7723 30.3967C64.7395 31.9388 65.8288 34.0014 65.8288 36.1956C65.8288 38.3898 64.7395 40.4536 62.7723 41.9945L43.2623 57.3287C41.2685 58.895 38.6371 59.7572 35.8198 59.7572C33.0024 59.7572 30.3711 58.895 28.3773 57.3541H28.3771Z" fill="#FFCC00"/>
<path d="M28.3771 47.6932L8.86701 32.3603C6.9003 30.8194 5.81056 28.7556 5.81056 26.5613C5.81056 24.3671 6.9003 22.3033 8.86725 20.7624L28.3773 5.40289C30.3445 3.86199 33.0024 3 35.8198 3C38.6371 3 41.2685 3.86199 43.2623 5.40313L62.7723 20.7361C64.7395 22.2782 65.8288 24.3408 65.8288 26.535C65.8288 28.7292 64.7395 30.793 62.7723 32.3339L43.2623 47.6681C41.2685 49.2344 38.6371 50.0966 35.8198 50.0966C33.0024 50.0966 30.3711 49.2344 28.3773 47.6935L28.3771 47.6932Z" fill="url(#paint0_linear)"/>
<path d="M35.8872 41.2555C45.856 41.2555 53.9385 34.6499 53.9385 26.501C53.9385 18.3508 45.856 11.7452 35.8872 11.7452C25.9172 11.745 17.8359 18.3508 17.8359 26.501C17.8359 34.6499 25.9172 41.2555 35.8872 41.2555ZM35.8872 42.7746C24.8907 42.7746 15.9774 35.488 15.9774 26.501C15.9774 17.5128 24.8907 10.2261 35.8872 10.2261C46.8824 10.2261 55.797 17.5128 55.797 26.501C55.797 35.488 46.8824 42.7746 35.8872 42.7746Z" fill="white"/>
<path d="M37.2179 32.7636C38.2154 32.6332 39.1875 32.3542 40.0788 31.9291L45.7605 34.2647L42.7838 29.8062C44.3501 27.7883 44.3501 25.2342 42.7838 23.2175L45.7605 18.759L40.4048 20.9593L40.2515 23.3141C42.4408 25.1509 42.3853 28.0503 40.1102 29.8231C39.5293 30.2868 38.8627 30.6129 38.1635 30.8447L37.2179 32.7636ZM34.5612 20.2552C32.9128 20.4702 31.6775 21.0945 31.6775 21.0945L26.0005 18.759L28.9772 23.2175C27.411 25.2342 27.411 27.7883 28.9772 29.8062L26.0005 34.2647L31.5024 32.0028L31.6195 29.7977C29.3178 27.967 29.3359 25.0385 31.6569 23.1994C32.1967 22.7163 33.4176 22.2043 33.6 22.1777L34.5612 20.2552Z" fill="#8CC8F6"/>
<path d="M33.1556 26.0131L32.3996 39.4175L38.5234 26.9864L39.4001 13.6074L33.1556 26.0131ZM33.0771 36.8417L37.9811 26.8898L33.6833 26.1061L33.0771 36.8417Z" fill="white"/>
<defs>
<linearGradient id="paint0_linear" x1="35.8197" y1="3" x2="35.8197" y2="50.0966" gradientUnits="userSpaceOnUse">
<stop stop-color="#34AADC"/>
<stop offset="1" stop-color="#007AFF"/>
</linearGradient>
</defs>
</svg>
